
        <svg xmlns="http://www.w3.org/2000/svg" xmlns:xlink="http://www.w3.org/1999/xlink" version="1.1" width="3187.5" height="1942.8397679091822" viewBox="0 0 3187.5 1942.8397679091822">
			
			<g transform="scale(9.375) translate(10, 10)">
				<defs id="SvgjsDefs1341"/><g id="SvgjsG1342" featureKey="symbolFeature-0" transform="matrix(1.213476592586789,0,0,1.213476592586789,99.32586138185076,-6.673906008595796)" fill="#fff"><title xmlns="http://www.w3.org/2000/svg">Artboard 10</title><path xmlns="http://www.w3.org/2000/svg" d="M20.59766,83.41064c1.09863.958,2.12793,1.7832,3.14453,2.521A44.17426,44.17426,0,0,0,49.99316,94.5a39.90027,39.90027,0,0,0,4.35449-.22119,43.80257,43.80257,0,0,0,17.126-5.29248,44.57384,44.57384,0,0,0,22.35059-46.752c-.13184-.79395-.30371-1.61279-.52441-2.502-.002-.01562-.00488-.03076-.00781-.04639-.20483-.8866-.42651-1.70587-.67383-2.49854v-.001l-.00049-.001-.00342-.01166A44.69135,44.69135,0,0,0,76.27466,14.084l-.00537-.004A44.14166,44.14166,0,0,0,49.99316,5.5h-.55859A44.25694,44.25694,0,0,0,34.46,8.291l-.01477.0047-.04089.01239c-.28027.06836-.55957.16064-.82812.25488a7.23724,7.23724,0,0,0-1.30566.60645c-.0166.00635-.0332.01367-.04883.02148l-.06433.03278a44.51609,44.51609,0,0,0-11.55969,74.187ZM89.80493,40.446a3.07486,3.07486,0,0,0,1.70874,2.12982c-.23389.73572-.49536,1.49866-.79687,2.29187a48.14564,48.14564,0,0,1-6.371,11.60779,4.23547,4.23547,0,0,0-4.402-.1098,69.83571,69.83571,0,0,0-12.71509-12.487c-1.0448-2.76062-2.15259-5.38385-3.29614-7.7981a.44045.44045,0,0,0-.02637-.06934c-1.18506-2.509-2.4519-4.8985-3.77295-7.16949a38.85887,38.85887,0,0,0,2.938,2.57574.54045.54045,0,0,0,.07227.06934,42.17534,42.17534,0,0,0,26.15137,8.96631C89.467,40.45313,89.63452,40.44794,89.80493,40.446Zm.92847-.64716A2.0705,2.0705,0,0,1,91.811,37.99139c.17676.60345.34375,1.2196.49756,1.88019a.43161.43161,0,0,0,.01074.061c.17041.68207.30249,1.31378.41736,1.9306a2.06426,2.06426,0,0,1-1.991-1.94238l.00037-.00238-.0011-.00476C90.7428,39.87488,90.7334,39.83813,90.7334,39.79883Zm-8.68945,23.7168a3.35669,3.35669,0,1,1,3.35645-3.35645A3.36067,3.36067,0,0,1,82.04395,63.51563ZM70.82056,88.19891a42.81552,42.81552,0,0,1-16.39612,5.0639,36.89766,36.89766,0,0,1-7.96887-7.30731,5.58327,5.58327,0,0,0,1.82666-4.143,5.68919,5.68919,0,0,0-.05762-.787A72.68112,72.68112,0,0,0,72.38843,69.64209C73.071,77.11786,72.53784,83.51691,70.82056,88.19891ZM38.05566,82.53613a5.02392,5.02392,0,0,1-.05859-.72363,4.643,4.643,0,0,1,9.17163-1.02386l.00024.00531.001.00159a4.24788,4.24788,0,0,1,.1123,1.017A4.60448,4.60448,0,0,1,45.45117,85.501a4.63508,4.63508,0,0,1-7.39551-2.96484Zm1.25781-51.96338a4.64287,4.64287,0,1,1,4.44531,5.9873A4.62335,4.62335,0,0,1,39.11621,31.918,4.58424,4.58424,0,0,1,39.31348,30.57275ZM55.293,26.66064a4.3,4.3,0,0,0,2.02075-.52045,89.69,89.69,0,0,1,5.66187,10.24115.45685.45685,0,0,0,.02637.0708c.937,1.97443,1.84912,4.09637,2.72314,6.31647a84.48615,84.48615,0,0,0-7.355-4.79108,79.60236,79.60236,0,0,0-9.1958-4.56024,5.40467,5.40467,0,0,0-1.05347-5.03973c1.3031-1.17334,2.61646-2.24908,3.91626-3.208A4.33044,4.33044,0,0,0,55.293,26.66064ZM40.496,36.50092a5.59349,5.59349,0,0,0,8.33215-2.14386,78.6469,78.6469,0,0,1,9.041,4.48621,83.97373,83.97373,0,0,1,8.53467,5.66132c.20068.53241.40076,1.074.59033,1.62042a98.94752,98.94752,0,0,1,5.28772,22.3653A71.53061,71.53061,0,0,1,47.981,80.056a5.58555,5.58555,0,0,0-7.98657-3.20886,98.27239,98.27239,0,0,1-7.66846-15.90375,6.88953,6.88953,0,0,0,.54956-12.4295A70.2772,70.2772,0,0,1,40.496,36.50092ZM73.20386,67.78979A100.4379,100.4379,0,0,0,67.9375,45.79248c-.01343-.03845-.02832-.07623-.04187-.11469a68.02546,68.02546,0,0,1,11.2312,11.26794,4.28743,4.28743,0,0,0-.39209,6.01447A59.16941,59.16941,0,0,1,73.20386,67.78979ZM55.293,25.66064a3.35693,3.35693,0,1,1,3.35645-3.35693A3.36077,3.36077,0,0,1,55.293,25.66064Zm0-7.71387a4.3262,4.3262,0,0,0-1.73291.36389,35.6965,35.6965,0,0,1-2.73486-7.29114,33.83927,33.83927,0,0,1-.81226-4.51917,43.13559,43.13559,0,0,1,24.68042,7.6933,51.94349,51.94349,0,0,0-15.93481,5.4989A4.33788,4.33788,0,0,0,55.293,17.94678Zm-5.43652-6.68164a36.296,36.296,0,0,0,2.14673,6.08875c-.4397-.4964-.87158-.96625-1.302-1.41541C46.32349,11.37714,41.974,8.7099,38.08167,8.15753A43.33763,43.33763,0,0,1,49.00586,6.51465,34.71411,34.71411,0,0,0,49.85645,11.26514Zm-17.209-1.16748L32.651,10.096c.0116-.00421.02356-.0083.03455-.01349.65356-.28876,1.3313-.55267,2.0033-.81708l.01135-.00323c.0127-.00342.03223-.00928.05273-.01611,4.28809-1.00244,9.69629,1.62158,15.22656,7.38428.73987.77264,1.49219,1.62372,2.27771,2.5578A4.27661,4.27661,0,0,0,51.468,24.3465c-1.3429.98969-2.69971,2.10083-4.04517,3.31323a5.59,5.59,0,0,0-8.89221,2.17908,61.67168,61.67168,0,0,0-8.84509-1.59332,4.30668,4.30668,0,0,0-3.584-4.066C26.81445,17.1438,29.11108,12.15857,32.64746,10.09766ZM25.34863,25.08984H25.375a1.06009,1.06009,0,0,1,.12769.0094l.0061.00183.01733.00073.0022.00024a3.34452,3.34452,0,0,1,3.17676,3.34473,1.51247,1.51247,0,0,1-.00989.19409l-.00085.00269.00037.00323-.00134.01532a3.355,3.355,0,0,1-6.70215-.12549v-.08984A3.36077,3.36077,0,0,1,25.34863,25.08984ZM29.61157,29.243a60.6222,60.6222,0,0,1,8.62891,1.55481A5.52367,5.52367,0,0,0,39.72632,35.862,71.26923,71.26923,0,0,0,31.9574,48.11139a6.91984,6.91984,0,0,0-3.69495-.28308,84.28123,84.28123,0,0,1-2.303-15.08527A4.33238,4.33238,0,0,0,29.61157,29.243ZM28.02539,48.89063a5.46917,5.46917,0,0,1,1.57813-.22266A5.78619,5.78619,0,0,1,32,49.17822a5.93357,5.93357,0,1,1-3.97461-.2876ZM27.844,61.26886a6.90129,6.90129,0,0,0,1.75952.25507,6.79119,6.79119,0,0,0,1.7771-.25391,99.30177,99.30177,0,0,0,7.77319,16.12109,5.63985,5.63985,0,0,0-2.15674,4.42139c0,.11853.02.2334.02832.3512a82.51014,82.51014,0,0,1-12.47241.559A82.18822,82.18822,0,0,1,27.844,61.26886ZM23.5249,84.507c-.36816-.28217-.74243-.57648-1.12073-.887.37659.0224.7511.04858,1.1283.06531C23.52942,83.95813,23.5249,84.23071,23.5249,84.507Zm1.009.75848c-.00537-.23865-.00952-.47961-.00952-.71466,0-.27753.00488-.55328.00793-.82867.84265.02539,1.68884.043,2.53894.043A83.77982,83.77982,0,0,0,37.184,83.15442a5.57713,5.57713,0,0,0,8.46777,3.39966,40.16274,40.16274,0,0,0,7.18665,6.84149c-.908.06207-1.84009.10443-2.84521.10443A43.17588,43.17588,0,0,1,24.53394,85.26544ZM72.12134,87.436c1.5144-4.83038,1.939-11.16693,1.21252-18.48181a60.116,60.116,0,0,0,6.12732-5.30585,4.26425,4.26425,0,0,0,4.38916.46344,37.23535,37.23535,0,0,1,3.40894,8.34064A43.70065,43.70065,0,0,1,72.12134,87.436ZM87.943,71.24213a38.89225,38.89225,0,0,0-3.24011-7.657,4.32371,4.32371,0,0,0,.43091-6.49231,49.18144,49.18144,0,0,0,6.51855-11.87115c.31274-.824.585-1.61908.82813-2.38434a3.00285,3.00285,0,0,0,.32422.03278c.03931,0,.06616-.0094.10376-.0105a44.082,44.082,0,0,1,.59155,7.134A43.49885,43.49885,0,0,1,87.943,71.24213Zm3.56995-34.22668a3.07508,3.07508,0,0,0-1.75,2.43127c-.1543.00171-.30078.0069-.468.00641a41.18455,41.18455,0,0,1-25.458-8.69238.47.47,0,0,0-.07422-.07178,37.36316,37.36316,0,0,1-5.44678-5.25952,4.316,4.316,0,0,0,.95886-4.87854,50.86252,50.86252,0,0,1,16.56995-5.53741A43.7044,43.7044,0,0,1,91.51294,37.01544ZM29.26257,11.75684c-2.19934,2.746-3.61707,6.9325-4.15979,12.35785a4.33772,4.33772,0,0,0-4.0741,3.96167,35.11538,35.11538,0,0,0-9.66492,1.92035A43.65919,43.65919,0,0,1,29.26257,11.75684ZM10.71484,31.28839a33.36933,33.36933,0,0,1,10.343-2.211A4.3826,4.3826,0,0,0,24.959,32.75714a85.229,85.229,0,0,0,2.33923,15.33813,6.88587,6.88587,0,0,0-.40173,12.85242,83.1658,83.1658,0,0,0-3.343,21.73755c-.80957-.03638-1.61877-.0813-2.41992-.1402a43.552,43.552,0,0,1-10.4187-51.25665Z"/><path xmlns="http://www.w3.org/2000/svg" d="M29.60352,59.04932a4.35693,4.35693,0,1,0-4.35645-4.35693A4.36239,4.36239,0,0,0,29.60352,59.04932Zm0-7.71387a3.35693,3.35693,0,1,1-3.35645,3.35693A3.36077,3.36077,0,0,1,29.60352,51.33545Z"/></g><g id="SvgjsG1343" featureKey="nameFeature-0" transform="matrix(1.5094025653377474,0,0,1.5094025653377474,-4.8347669459182905,111.57977420484829)" fill="#fff"><path d="M3.2031 40 l0 -28.711 l7.4414 0 l0 28.711 l-7.4414 0 z M35.880558593749996 11.289000000000001 l7.4414 0 l0 28.711 l-8.8477 0 l-10.957 -18.633 l0 18.633 l-7.4414 0 l0 -28.711 l8.75 0 l11.055 18.535 l0 -18.535 z M66.5652734375 17.754 l-10.391 0 l0 4.6875 l8.9063 0 l0 6.4063 l-8.9063 0 l0 11.152 l-7.4414 0 l0 -28.711 l17.832 0 l0 6.4648 z M82.99226953125 40.39063 c-8.6719 0 -14.902 -5.8789 -14.902 -14.746 c0 -8.9258 6.2305 -14.766 14.902 -14.766 c8.6914 0 14.922 5.8398 14.922 14.766 c0 8.8672 -6.2305 14.746 -14.922 14.746 z M82.99226953125 33.6328 c4.3359 0 7.5781 -3.0664 7.5781 -7.9883 s-3.2422 -8.0078 -7.5781 -8.0078 c-4.3164 0 -7.5195 3.0859 -7.5195 8.0078 s3.2031 7.9883 7.5195 7.9883 z M114.068515625 11.289000000000001 c5.8789 0 9.4727 4.3164 9.4727 9.5898 c0 5.4102 -3.5938 9.3945 -9.4727 9.3945 l-5.1953 0 l0 9.7266 l-7.4414 0 l0 -28.711 l12.637 0 z M112.779515625 24.121000000000002 c2.6563 0 3.6914 -1.25 3.6914 -3.3594 c0 -1.9922 -1.0352 -3.3203 -3.6914 -3.3203 l-3.9063 0 l0 6.6797 l3.9063 0 z M137.79982421875 40.39063 c-6.5625 0 -11.758 -2.9883 -11.758 -10.781 l0 -18.32 l7.4414 0 l0 17.305 c0 4.082 1.9141 5.293 4.3164 5.293 s4.3164 -1.2109 4.3164 -5.293 l0 -17.305 l7.4414 0 l0 18.32 c0 7.793 -5.1953 10.781 -11.758 10.781 z M161.8256640625 33.4766 l8.3984 0 l0 6.5234 l-15.84 0 l0 -28.711 l7.4414 0 l0 22.188 z M183.01800390625 40.39063 c-6.2891 0 -11.406 -3.0273 -12.207 -8.7891 l7.7148 -1.7578 c0.21484 3.125 2.168 4.5898 4.8047 4.5898 c1.9141 0 3.0859 -0.91797 3.0859 -2.5586 c0 -2.1484 -2.7539 -2.9492 -5.957 -4.043 c-4.043 -1.3477 -8.5742 -3.0273 -8.5742 -8.3203 c0 -5.3516 4.3359 -8.6328 10.527 -8.6328 c5.0391 0 10.527 1.9922 11.719 7.9297 l-7.1484 1.7578 c-0.41016 -2.5977 -1.7773 -3.7305 -4.082 -3.7305 c-2.0508 0 -3.4961 0.80078 -3.4961 2.4805 c0 1.6016 2.5781 2.2461 5.5273 3.2031 c4.1211 1.3672 9.1992 3.2422 9.1992 8.9258 c0 6.3086 -5.3125 8.9453 -11.113 8.9453 z M215.2075 17.754 l-10 0 l0 4.6875 l8.9063 0 l0 6.4063 l-8.9063 0 l0 4.6289 l10 0 l0 6.5234 l-17.441 0 l0 -28.711 l17.441 0 l0 6.4648 z"/></g><g id="SvgjsG1344" featureKey="sloganFeature-0" transform="matrix(0.29211311557496566,0,0,0.29211311557496566,47.552132233379695,181.33692695237966)" fill="#fff"><path d="M7.0508 20.19531 c-3.0957 0 -5.5176 -1.582 -5.5176 -5.1367 l0 -9.1699 l2.9297 0 l0 8.7695 c0 2.1484 1.1426 2.9492 2.5879 2.9492 c1.4551 0 2.6074 -0.81055 2.6074 -2.9492 l0 -8.7695 l2.9297 0 l0 9.1699 c0 3.5547 -2.4316 5.1367 -5.5371 5.1367 z M27.8566015625 5.888999999999999 l2.9199 0 l0 14.111 l-3.3887 0 l-6.25 -10.088 l0 10.088 l-2.9199 0 l0 -14.111 l3.3496 0 l6.2891 10.029 l0 -10.029 z M39.628946875 17.4121 l4.4238 0 l0 2.5879 l-7.3535 0 l0 -14.111 l2.9297 0 l0 11.523 z M56.7433984375 8.467 l-5.2344 0 l0 3.2031 l4.6387 0 l0 2.5488 l-4.6387 0 l0 3.1934 l5.2344 0 l0 2.5879 l-8.1836 0 l0 -14.111 l8.1836 0 l0 2.5781 z M71.475078125 20 l-1.0254 -2.9102 l-5.9277 0 l-1.0254 2.9102 l-2.998 0 l5.1953 -14.111 l3.584 0 l5.1953 14.111 l-2.998 0 z M65.380878125 14.6387 l4.209 0 l-2.0996 -5.9863 z M83.5498328125 20.19531 c-3.0273 0 -5.3906 -1.4551 -5.8203 -4.1016 l3.0273 -0.69336 c0.19531 1.582 1.3574 2.4023 2.9102 2.4023 c1.1914 0 2.1387 -0.52734 2.1289 -1.7188 c-0.0097656 -1.3281 -1.5723 -1.748 -3.291 -2.2754 c-2.0703 -0.64453 -4.2871 -1.4063 -4.2871 -4.0039 c0 -2.627 2.1484 -4.1113 4.9805 -4.1113 c2.4805 0 4.9805 1.0059 5.5469 3.7109 l-2.832 0.70313 c-0.26367 -1.4063 -1.2109 -2.0215 -2.5391 -2.0215 c-1.1816 0 -2.1875 0.48828 -2.1875 1.6504 c0 1.084 1.3867 1.4453 2.9883 1.9238 c2.1289 0.64453 4.6484 1.4648 4.6484 4.2773 c0 2.998 -2.5098 4.2578 -5.2734 4.2578 z M102.69565625 5.888999999999999 l2.9297 0 l0 14.111 l-2.9297 0 l0 -5.8008 l-5.9668 0 l0 5.8008 l-2.9297 0 l0 -14.111 l2.9297 0 l0 5.7617 l5.9668 0 l0 -5.7617 z M127.1975 5.888999999999999 l0 2.5781 l-3.3496 0 l0 11.533 l-2.9004 0 l0 -11.533 l-3.3691 0 l0 -2.5781 l9.6191 0 z M140.5813984375 5.888999999999999 l2.9297 0 l0 14.111 l-2.9297 0 l0 -5.8008 l-5.9668 0 l0 5.8008 l-2.9297 0 l0 -14.111 l2.9297 0 l0 5.7617 l5.9668 0 l0 -5.7617 z M157.617421875 8.467 l-5.2344 0 l0 3.2031 l4.6387 0 l0 2.5488 l-4.6387 0 l0 3.1934 l5.2344 0 l0 2.5879 l-8.1836 0 l0 -14.111 l8.1836 0 l0 2.5781 z M176.240221875 5.888999999999999 c2.7637 0 4.4824 2.0508 4.4824 4.5605 c0 2.5684 -1.7188 4.4922 -4.4824 4.4922 l-2.9395 0 l0 5.0586 l-2.9297 0 l0 -14.111 l5.8691 0 z M175.751921875 12.4902 c1.4648 0 2.1484 -0.81055 2.1484 -2.0801 c0 -1.2207 -0.68359 -2.0703 -2.1484 -2.0703 l-2.4512 0 l0 4.1504 l2.4512 0 z M191.7041296875 20.19531 c-4.1504 0 -7.2168 -2.832 -7.2168 -7.2559 c0 -4.4336 3.0664 -7.2461 7.2168 -7.2461 c4.1406 0 7.207 2.8125 7.207 7.2461 c0 4.4238 -3.0664 7.2559 -7.207 7.2559 z M191.7041296875 17.5098 c2.4316 0 4.2969 -1.709 4.2969 -4.5703 c0 -2.8516 -1.8652 -4.5508 -4.2969 -4.5508 s-4.2969 1.6992 -4.2969 4.5508 c0 2.8613 1.8652 4.5703 4.2969 4.5703 z M206.17188125 20 l-3.6914 -14.111 l3.0469 0 l2.7539 10.684 l3.1543 -10.684 l2.4707 0 l3.1348 10.684 l2.7832 -10.684 l3.0371 0 l-3.6914 14.111 l-3.7695 0 l-2.7344 -8.7207 l-2.7246 8.7207 l-3.7695 0 z M235.5715234375 8.467 l-5.2344 0 l0 3.2031 l4.6387 0 l0 2.5488 l-4.6387 0 l0 3.1934 l5.2344 0 l0 2.5879 l-8.1836 0 l0 -14.111 l8.1836 0 l0 2.5781 z M248.310503125 20 l-3.6719 -6.2109 l-0.84961 0 l0 6.2109 l-2.9297 0 l0 -14.111 l5.1172 0 c3.1934 0 4.541 1.8848 4.541 4.2188 c0 1.8945 -1.0742 3.125 -2.9883 3.5352 l4.248 6.3574 l-3.4668 0 z M243.789103125 8.32 l0 3.3691 l1.7285 0 c1.5625 0 2.1973 -0.66406 2.1973 -1.6797 c0 -1.0059 -0.63477 -1.6895 -2.1973 -1.6895 l-1.7285 0 z M269.9121375 20.19531 c-4.1504 0 -7.2168 -2.832 -7.2168 -7.2559 c0 -4.4336 3.0664 -7.2461 7.2168 -7.2461 c4.1406 0 7.207 2.8125 7.207 7.2461 c0 4.4238 -3.0664 7.2559 -7.207 7.2559 z M269.9121375 17.5098 c2.4316 0 4.2969 -1.709 4.2969 -4.5703 c0 -2.8516 -1.8652 -4.5508 -4.2969 -4.5508 s-4.2969 1.6992 -4.2969 4.5508 c0 2.8613 1.8652 4.5703 4.2969 4.5703 z M290.4047890625 8.467 l-5.3711 0 l0 3.2031 l4.6387 0 l0 2.5488 l-4.6387 0 l0 5.7813 l-2.9492 0 l0 -14.111 l8.3203 0 l0 2.5781 z M302.6416296875 20 l0 -14.111 l5.1074 0 c4.502 0 6.7285 2.832 6.7285 7.0508 c0 4.2285 -2.2266 7.0605 -6.7285 7.0605 l-5.1074 0 z M305.5713296875 17.4121 l2.0313 0 c2.5977 0 3.7891 -1.6211 3.7891 -4.4727 s-1.1914 -4.4727 -3.7891 -4.4727 l-2.0313 0 l0 8.9453 z M328.936015625 20 l-1.0254 -2.9102 l-5.9277 0 l-1.0254 2.9102 l-2.998 0 l5.1953 -14.111 l3.584 0 l5.1953 14.111 l-2.998 0 z M322.841815625 14.6387 l4.209 0 l-2.0996 -5.9863 z M344.5070703125 5.888999999999999 l0 2.5781 l-3.3496 0 l0 11.533 l-2.9004 0 l0 -11.533 l-3.3691 0 l0 -2.5781 l9.6191 0 z M358.43796875 20 l-1.0254 -2.9102 l-5.9277 0 l-1.0254 2.9102 l-2.998 0 l5.1953 -14.111 l3.584 0 l5.1953 14.111 l-2.998 0 z M352.34376875 14.6387 l4.209 0 l-2.0996 -5.9863 z M382.26584375 5.888999999999999 l3.1152 0 l-5.2148 14.111 l-3.2227 0 l-5.1855 -14.111 l3.1055 0 l3.7012 10.693 z M389.7705359375 20 l0 -14.111 l2.9297 0 l0 14.111 l-2.9297 0 z M403.300809375 20.19531 c-3.0273 0 -5.3906 -1.4551 -5.8203 -4.1016 l3.0273 -0.69336 c0.19531 1.582 1.3574 2.4023 2.9102 2.4023 c1.1914 0 2.1387 -0.52734 2.1289 -1.7188 c-0.0097656 -1.3281 -1.5723 -1.748 -3.291 -2.2754 c-2.0703 -0.64453 -4.2871 -1.4063 -4.2871 -4.0039 c0 -2.627 2.1484 -4.1113 4.9805 -4.1113 c2.4805 0 4.9805 1.0059 5.5469 3.7109 l-2.832 0.70313 c-0.26367 -1.4063 -1.2109 -2.0215 -2.5391 -2.0215 c-1.1816 0 -2.1875 0.48828 -2.1875 1.6504 c0 1.084 1.3867 1.4453 2.9883 1.9238 c2.1289 0.64453 4.6484 1.4648 4.6484 4.2773 c0 2.998 -2.5098 4.2578 -5.2734 4.2578 z M418.7744328125 20.19531 c-3.0957 0 -5.5176 -1.582 -5.5176 -5.1367 l0 -9.1699 l2.9297 0 l0 8.7695 c0 2.1484 1.1426 2.9492 2.5879 2.9492 c1.4551 0 2.6074 -0.81055 2.6074 -2.9492 l0 -8.7695 l2.9297 0 l0 9.1699 c0 3.5547 -2.4316 5.1367 -5.5371 5.1367 z M439.385234375 20 l-1.0254 -2.9102 l-5.9277 0 l-1.0254 2.9102 l-2.998 0 l5.1953 -14.111 l3.584 0 l5.1953 14.111 l-2.998 0 z M433.291034375 14.6387 l4.209 0 l-2.0996 -5.9863 z M449.7021890625 17.4121 l4.4238 0 l0 2.5879 l-7.3535 0 l0 -14.111 l2.9297 0 l0 11.523 z M458.632840625 20 l0 -14.111 l2.9297 0 l0 14.111 l-2.9297 0 z M470.0439140625 17.4121 l6.7773 0 l0 2.5879 l-10.283 0 l0 -2.3145 l6.6895 -9.2188 l-6.6797 0 l0 -2.5781 l10.146 0 l0 2.3145 z M491.221171875 20 l-1.0254 -2.9102 l-5.9277 0 l-1.0254 2.9102 l-2.998 0 l5.1953 -14.111 l3.584 0 l5.1953 14.111 l-2.998 0 z M485.126971875 14.6387 l4.209 0 l-2.0996 -5.9863 z M506.7922265625 5.888999999999999 l0 2.5781 l-3.3496 0 l0 11.533 l-2.9004 0 l0 -11.533 l-3.3691 0 l0 -2.5781 l9.6191 0 z M511.279325 20 l0 -14.111 l2.9297 0 l0 14.111 l-2.9297 0 z M526.3720984375 20.19531 c-4.1504 0 -7.2168 -2.832 -7.2168 -7.2559 c0 -4.4336 3.0664 -7.2461 7.2168 -7.2461 c4.1406 0 7.207 2.8125 7.207 7.2461 c0 4.4238 -3.0664 7.2559 -7.207 7.2559 z M526.3720984375 17.5098 c2.4316 0 4.2969 -1.709 4.2969 -4.5703 c0 -2.8516 -1.8652 -4.5508 -4.2969 -4.5508 s-4.2969 1.6992 -4.2969 4.5508 c0 2.8613 1.8652 4.5703 4.2969 4.5703 z M548.18375 5.888999999999999 l2.9199 0 l0 14.111 l-3.3887 0 l-6.25 -10.088 l0 10.088 l-2.9199 0 l0 -14.111 l3.3496 0 l6.2891 10.029 l0 -10.029 z M566.787115625 20 l-3.6914 -14.111 l3.0469 0 l2.7539 10.684 l3.1543 -10.684 l2.4707 0 l3.1348 10.684 l2.7832 -10.684 l3.0371 0 l-3.6914 14.111 l-3.7695 0 l-2.7344 -8.7207 l-2.7246 8.7207 l-3.7695 0 z M588.0029578125 20 l0 -14.111 l2.9297 0 l0 14.111 l-2.9297 0 z M605.02953125 5.888999999999999 l0 2.5781 l-3.3496 0 l0 11.533 l-2.9004 0 l0 -11.533 l-3.3691 0 l0 -2.5781 l9.6191 0 z M618.4134296875 5.888999999999999 l2.9297 0 l0 14.111 l-2.9297 0 l0 -5.8008 l-5.9668 0 l0 5.8008 l-2.9297 0 l0 -14.111 l2.9297 0 l0 5.7617 l5.9668 0 l0 -5.7617 z M634.7314734375 20 l0 -14.111 l2.9297 0 l0 14.111 l-2.9297 0 z M653.213046875 5.888999999999999 l2.9199 0 l0 14.111 l-3.3887 0 l-6.25 -10.088 l0 10.088 l-2.9199 0 l0 -14.111 l3.3496 0 l6.2891 10.029 l0 -10.029 z M670.3754921875 8.467 l-5.3711 0 l0 3.2031 l4.6387 0 l0 2.5488 l-4.6387 0 l0 5.7813 l-2.9492 0 l0 -14.111 l8.3203 0 l0 2.5781 z M681.3965125 20.19531 c-4.1504 0 -7.2168 -2.832 -7.2168 -7.2559 c0 -4.4336 3.0664 -7.2461 7.2168 -7.2461 c4.1406 0 7.207 2.8125 7.207 7.2461 c0 4.4238 -3.0664 7.2559 -7.207 7.2559 z M681.3965125 17.5098 c2.4316 0 4.2969 -1.709 4.2969 -4.5703 c0 -2.8516 -1.8652 -4.5508 -4.2969 -4.5508 s-4.2969 1.6992 -4.2969 4.5508 c0 2.8613 1.8652 4.5703 4.2969 4.5703 z M699.4384640625 5.888999999999999 c2.7637 0 4.4824 2.0508 4.4824 4.5605 c0 2.5684 -1.7188 4.4922 -4.4824 4.4922 l-2.9395 0 l0 5.0586 l-2.9297 0 l0 -14.111 l5.8691 0 z M698.9501640625 12.4902 c1.4648 0 2.1484 -0.81055 2.1484 -2.0801 c0 -1.2207 -0.68359 -2.0703 -2.1484 -2.0703 l-2.4512 0 l0 4.1504 l2.4512 0 z M713.876971875 20.19531 c-3.0957 0 -5.5176 -1.582 -5.5176 -5.1367 l0 -9.1699 l2.9297 0 l0 8.7695 c0 2.1484 1.1426 2.9492 2.5879 2.9492 c1.4551 0 2.6074 -0.81055 2.6074 -2.9492 l0 -8.7695 l2.9297 0 l0 9.1699 c0 3.5547 -2.4316 5.1367 -5.5371 5.1367 z M727.9736734375 17.4121 l4.4238 0 l0 2.5879 l-7.3535 0 l0 -14.111 l2.9297 0 l0 11.523 z M741.591825 20.19531 c-3.0273 0 -5.3906 -1.4551 -5.8203 -4.1016 l3.0273 -0.69336 c0.19531 1.582 1.3574 2.4023 2.9102 2.4023 c1.1914 0 2.1387 -0.52734 2.1289 -1.7188 c-0.0097656 -1.3281 -1.5723 -1.748 -3.291 -2.2754 c-2.0703 -0.64453 -4.2871 -1.4063 -4.2871 -4.0039 c0 -2.627 2.1484 -4.1113 4.9805 -4.1113 c2.4805 0 4.9805 1.0059 5.5469 3.7109 l-2.832 0.70313 c-0.26367 -1.4063 -1.2109 -2.0215 -2.5391 -2.0215 c-1.1816 0 -2.1875 0.48828 -2.1875 1.6504 c0 1.084 1.3867 1.4453 2.9883 1.9238 c2.1289 0.64453 4.6484 1.4648 4.6484 4.2773 c0 2.998 -2.5098 4.2578 -5.2734 4.2578 z M760.0246484375 8.467 l-5.2344 0 l0 3.2031 l4.6387 0 l0 2.5488 l-4.6387 0 l0 3.1934 l5.2344 0 l0 2.5879 l-8.1836 0 l0 -14.111 l8.1836 0 l0 2.5781 z M765.605428125 15.498000000000001 l-0.2832 -9.6094 l2.832 0 l-0.2832 9.6094 l-2.2656 0 z M766.738328125 20.19531 c-0.87891 0 -1.6016 -0.72266 -1.6016 -1.6016 c0 -0.89844 0.72266 -1.6211 1.6016 -1.6211 c0.89844 0 1.6211 0.72266 1.6211 1.6211 c0 0.87891 -0.72266 1.6016 -1.6211 1.6016 z"/></g>
			</g>
		</svg>
	